<?xml version="1.0" encoding="UTF-8" standalone="no"?>
<svg
   xmlns:dc="http://purl.org/dc/elements/1.1/"
   xmlns:cc="http://creativecommons.org/ns#"
   xmlns:rdf="http://www.w3.org/1999/02/22-rdf-syntax-ns#"
   xmlns:svg="http://www.w3.org/2000/svg"
   xmlns="http://www.w3.org/2000/svg"
   xmlns:sodipodi="http://sodipodi.sourceforge.net/DTD/sodipodi-0.dtd"
   xmlns:inkscape="http://www.inkscape.org/namespaces/inkscape"
   width="200mm"
   height="50mm"
   viewBox="0 0 200 50"
   version="1.1"
   id="svg8"
   inkscape:version="1.0.1 (c497b03c, 2020-09-10)"
   sodipodi:docname="logo.svg">
  <defs
     id="defs2" />
  <sodipodi:namedview
     id="base"
     pagecolor="#ffffff"
     bordercolor="#666666"
     borderopacity="1.0"
     inkscape:pageopacity="0.0"
     inkscape:pageshadow="2"
     inkscape:zoom="0.66635802"
     inkscape:cx="437.02774"
     inkscape:cy="359.24762"
     inkscape:document-units="mm"
     inkscape:current-layer="text982"
     inkscape:document-rotation="0"
     showgrid="false"
     inkscape:window-width="1252"
     inkscape:window-height="755"
     inkscape:window-x="0"
     inkscape:window-y="23"
     inkscape:window-maximized="0" />
  <metadata
     id="metadata5">
    <rdf:RDF>
      <cc:Work
         rdf:about="">
        <dc:format>image/svg+xml</dc:format>
        <dc:type
           rdf:resource="http://purl.org/dc/dcmitype/StillImage" />
        <dc:title />
      </cc:Work>
    </rdf:RDF>
  </metadata>
  <g
     inkscape:groupmode="layer"
     id="layer2"
     inkscape:label="Layer 2">
    <rect
       style="fill:#ffffff;stroke:none;stroke-width:9.86169"
       id="rect20"
       width="216.95947"
       height="51.588848"
       x="44.982883"
       y="155.33441"
       inkscape:export-filename="/Users/amitsharma/rect20.png"
       inkscape:export-xdpi="96"
       inkscape:export-ydpi="96" />
  </g>
  <g
     inkscape:label="Layer 1"
     inkscape:groupmode="layer"
     id="layer1">
    <g
       aria-label="rekrypt"
       id="text982"
       style="font-style:normal;font-weight:normal;font-size:52.9167px;line-height:1.25;font-family:sans-serif;letter-spacing:-4.50321px;fill:#333333;fill-opacity:1;stroke:none;stroke-width:0.264583">
      <path
         d="m 25.768203,11.897285 q 2.196249,0 4.134117,1.446941 1.136882,0.826823 1.136882,2.170411 0,0.852662 -0.465088,2.015382 -0.465089,1.162721 -1.059368,1.757 -0.568441,0.594279 -1.214397,0.594279 -0.361735,0 -0.775147,-0.206706 -1.446941,-0.800985 -2.997235,-0.800985 -1.989543,0 -3.720705,1.266074 -1.731161,1.266073 -2.790529,3.488161 -1.033529,2.222088 -1.033529,4.96094 v 2.454632 h 7.415572 q 0.620118,0 0.956015,0.232545 0.335897,0.206705 0.490926,0.775146 0.180868,0.568442 0.180868,1.653647 0,1.085206 -0.180868,1.653647 -0.155029,0.568441 -0.490926,0.775147 -0.335897,0.206706 -0.956015,0.206706 H 6.7254258 q -0.6201176,0 -0.9560146,-0.206706 -0.335897,-0.206706 -0.5167646,-0.775147 -0.1550294,-0.568441 -0.1550294,-1.653647 0,-1.085205 0.1550294,-1.653647 0.1808676,-0.568441 0.5167646,-0.775146 0.335897,-0.232545 0.9560146,-0.232545 H 10.523646 V 17.762563 H 7.5005727 q -0.6201175,0 -0.9560146,-0.206705 -0.335897,-0.206706 -0.5167646,-0.775147 -0.1550294,-0.568442 -0.1550294,-1.653647 0,-1.085206 0.1550294,-1.653647 0.1808676,-0.568441 0.5167646,-0.775147 0.3358971,-0.232544 0.9560146,-0.232544 h 7.0796753 q 0.8785,0 1.240235,0.387573 0.387574,0.361736 0.387574,1.240235 v 5.606897 q 1.937867,-3.746544 4.444176,-5.761926 2.532146,-2.04122 5.11597,-2.04122 z"
         style="letter-spacing:-7.14904px;fill:#333333"
         id="path24" />
      <path
         d="m 42.62288,11.897285 q 3.927411,0 6.692102,1.705323 2.764691,1.679485 4.159955,4.702558 1.421103,2.997235 1.421103,6.87297 0,0.8785 -0.387573,1.240235 -0.361736,0.361735 -1.240235,0.361735 H 36.680087 q 0.490926,2.067059 2.092897,3.178103 1.627808,1.085205 4.108278,1.085205 4.004926,0 8.681646,-1.421102 0.310059,-0.103353 0.620118,-0.103353 0.568441,0 0.981853,0.516764 0.413411,0.516765 0.749308,1.757 0.258383,0.956015 0.258383,1.627809 0,0.671794 -0.310059,1.059367 -0.284221,0.361735 -0.956015,0.59428 -2.583823,0.852661 -5.270999,1.343588 -2.687176,0.490926 -5.270999,0.490926 -3.927411,0 -6.769617,-1.60197 -2.842205,-1.601971 -4.340823,-4.418338 -1.472779,-2.842205 -1.472779,-6.485396 0,-3.617353 1.550294,-6.459558 1.550294,-2.842206 4.470014,-4.444176 2.91972,-1.60197 6.821293,-1.60197 z m 0,5.865278 q -4.728396,0 -5.83944,3.979088 h 11.368822 q -0.43925,-1.886191 -1.886191,-2.91972 -1.421103,-1.059368 -3.643191,-1.059368 z"
         style="letter-spacing:-5.03237px;fill:#333333"
         id="path26" />
      <path
         d="m 81.670533,31.043414 q 0.904338,0 1.266073,0.542603 0.361735,0.542603 0.361735,2.118735 0,1.085206 -0.180868,1.653647 -0.155029,0.568441 -0.490926,0.775147 -0.335897,0.206706 -0.956014,0.206706 h -4.418338 q -1.291912,0 -2.015382,-1.033529 l -6.511235,-9.043381 -3.565676,2.713014 v 2.067058 h 2.247927 q 0.620117,0 0.956014,0.232545 0.335897,0.206705 0.490927,0.775146 0.180867,0.568442 0.180867,1.653647 0,1.085206 -0.180867,1.653647 -0.15503,0.568441 -0.490927,0.775147 -0.335897,0.206706 -0.956014,0.206706 H 56.710801 q -0.620118,0 -0.956015,-0.206706 -0.335897,-0.206706 -0.516764,-0.775147 -0.15503,-0.568441 -0.15503,-1.653647 0,-1.085205 0.15503,-1.653647 0.180867,-0.568441 0.516764,-0.775146 0.335897,-0.232545 0.956015,-0.232545 h 1.989544 V 7.7373295 h -2.506309 q -0.620117,0 -0.956014,-0.2067059 -0.335898,-0.2067058 -0.516765,-0.7751469 -0.15503,-0.5684411 -0.15503,-1.6536469 0,-1.0852057 0.15503,-1.6536468 0.180867,-0.5684411 0.516765,-0.7751469 0.335897,-0.2325441 0.956014,-0.2325441 h 7.338058 q 0.8785,0 1.240235,0.3875734 0.387573,0.3617353 0.387573,1.2402352 V 22.723504 l 6.717941,-5.477705 h -1.291912 q -0.904338,0 -1.266073,-0.490927 -0.361735,-0.490926 -0.361735,-1.886191 0,-1.421102 0.361735,-1.912029 0.361735,-0.490926 1.266073,-0.490926 h 10.697028 q 0.904338,0 1.266073,0.490926 0.361736,0.490927 0.361736,1.912029 0,1.395265 -0.361736,1.886191 -0.361735,0.490927 -1.266073,0.490927 H 80.24943 l -6.43372,5.193484 6.27869,8.604131 z"
         style="font-style:normal;font-variant:normal;font-weight:bold;font-stretch:normal;font-size:52.9167px;font-family:'Courier Prime';-inkscape-font-specification:'Courier Prime Bold';letter-spacing:-4.50321px;fill:#333333;stroke-width:0.264583"
         id="path28" />
      <path
         d="m 104.27163,11.897285 q 2.19625,0 4.13412,1.446941 1.13688,0.826823 1.13688,2.170411 0,0.852662 -0.46509,2.015382 -0.46509,1.162721 -1.05937,1.757 -0.56844,0.594279 -1.2144,0.594279 -0.36173,0 -0.77514,-0.206706 -1.44694,-0.800985 -2.99724,-0.800985 -1.98954,0 -3.720702,1.266074 -1.731162,1.266073 -2.790529,3.488161 -1.03353,2.222088 -1.03353,4.96094 v 2.454632 h 7.415571 q 0.62012,0 0.95602,0.232545 0.33589,0.206705 0.49092,0.775146 0.18087,0.568442 0.18087,1.653647 0,1.085206 -0.18087,1.653647 -0.15503,0.568441 -0.49092,0.775147 -0.3359,0.206706 -0.95602,0.206706 H 85.228851 q -0.620117,0 -0.956014,-0.206706 -0.335897,-0.206706 -0.516765,-0.775147 -0.155029,-0.568441 -0.155029,-1.653647 0,-1.085205 0.155029,-1.653647 0.180868,-0.568441 0.516765,-0.775146 0.335897,-0.232545 0.956014,-0.232545 h 3.79822 V 17.762563 h -3.023073 q -0.620117,0 -0.956014,-0.206705 -0.335897,-0.206706 -0.516765,-0.775147 -0.155029,-0.568442 -0.155029,-1.653647 0,-1.085206 0.155029,-1.653647 0.180868,-0.568441 0.516765,-0.775147 0.335897,-0.232544 0.956014,-0.232544 h 7.079676 q 0.8785,0 1.240235,0.387573 0.387573,0.361736 0.387573,1.240235 v 5.606897 q 1.937868,-3.746544 4.444176,-5.761926 2.532142,-2.04122 5.115972,-2.04122 z"
         style="letter-spacing:-3.18028px;fill:#333333"
         id="path30" />
      <path
         d="m 137.93667,12.465726 q 0.62012,0 0.95601,0.232544 0.3359,0.206706 0.49093,0.775147 0.18087,0.568441 0.18087,1.653647 0,1.085205 -0.18087,1.653647 -0.15503,0.568441 -0.49093,0.775147 -0.33589,0.206705 -0.95601,0.206705 h -1.65365 l -9.89604,20.050468 q -1.80868,3.643191 -3.46232,5.529382 -1.62781,1.912029 -3.74655,2.687176 -2.09289,0.800985 -5.42602,0.904338 -0.93018,0.02584 -1.42111,-0.697632 -0.46509,-0.723471 -0.46509,-2.6355 0,-1.31775 0.3359,-1.886191 0.36174,-0.568441 1.00769,-0.620117 2.04122,-0.129192 3.3073,-0.775147 1.29191,-0.645956 2.32544,-2.067059 1.05936,-1.395264 2.53214,-4.23747 l -7.9065,-16.252248 H 111.53 q -0.62012,0 -0.95602,-0.206705 -0.33589,-0.206706 -0.51676,-0.775147 -0.15503,-0.568442 -0.15503,-1.653647 0,-1.085206 0.15503,-1.653647 0.18087,-0.568441 0.51676,-0.775147 0.3359,-0.232544 0.95602,-0.232544 h 10.43864 q 0.62012,0 0.95602,0.232544 0.33589,0.206706 0.49092,0.775147 0.18087,0.568441 0.18087,1.653647 0,1.085205 -0.18087,1.653647 -0.15503,0.568441 -0.49092,0.775147 -0.3359,0.206705 -0.95602,0.206705 h -1.55029 l 4.49585,9.818528 4.49585,-9.818528 h -1.39526 q -0.62012,0 -0.95602,-0.206705 -0.33589,-0.206706 -0.51676,-0.775147 -0.15503,-0.568442 -0.15503,-1.653647 0,-1.085206 0.15503,-1.653647 0.18087,-0.568441 0.51676,-0.775147 0.3359,-0.232544 0.95602,-0.232544 z"
         style="letter-spacing:-1.59279px;fill:#333333"
         id="path32" />
      <path
         d="m 157.09198,11.897285 q 3.38481,0 5.91696,1.653647 2.53214,1.653646 3.87573,4.495852 1.34359,2.842205 1.34359,6.356205 0,3.513999 -1.34359,6.356205 -1.34359,2.842205 -3.87573,4.495852 -2.53215,1.653647 -5.91696,1.653647 -2.01538,0 -3.74654,-0.775147 -1.73116,-0.800985 -3.04891,-2.273764 v 7.208866 h 4.31498 q 0.62012,0 0.95601,0.206706 0.3359,0.206706 0.49093,0.775147 0.18087,0.568441 0.18087,1.653647 0,1.085206 -0.18087,1.653647 -0.15503,0.568441 -0.49093,0.775147 -0.33589,0.232544 -0.95601,0.232544 h -13.02247 q -0.62012,0 -0.95601,-0.206706 -0.3359,-0.206706 -0.51677,-0.775147 -0.15503,-0.568441 -0.15503,-1.653647 0,-1.085206 0.15503,-1.653647 0.18087,-0.568441 0.51677,-0.800985 0.33589,-0.206706 0.95601,-0.206706 h 2.24793 V 17.762563 h -2.24793 q -0.62012,0 -0.95601,-0.206705 -0.3359,-0.206706 -0.51677,-0.775147 -0.15503,-0.568442 -0.15503,-1.653647 0,-1.085206 0.15503,-1.653647 0.18087,-0.568441 0.51677,-0.775147 0.33589,-0.232544 0.95601,-0.232544 h 6.04615 q 0.8785,0 1.24023,0.387573 0.38758,0.361736 0.38758,1.240235 v 2.170412 q 1.34358,-2.067059 3.35897,-3.203941 2.01538,-1.16272 4.47001,-1.16272 z m -1.03353,5.865278 q -1.65365,0 -2.99723,0.775147 -1.34359,0.775147 -2.14458,2.299603 -0.80098,1.498617 -0.80098,3.565676 0,2.067058 0.80098,3.591514 0.80099,1.498618 2.14458,2.273764 1.34358,0.775147 2.99723,0.775147 1.60197,0 2.79053,-0.800985 1.18856,-0.826823 1.80868,-2.325441 0.64595,-1.498617 0.64595,-3.513999 0,-2.015382 -0.64595,-3.514 -0.62012,-1.498617 -1.80868,-2.299602 -1.18856,-0.826824 -2.79053,-0.826824 z"
         style="letter-spacing:-5.56154px;fill:#333333"
         id="path34" />
      <path
         d="m 177.70456,5.1018298 q 1.2144,0 1.86035,0.1808677 0.6718,0.1550293 0.93018,0.4909264 0.25838,0.335897 0.25838,0.9560145 V 14.01602 h 9.58599 q 0.90433,0 1.26607,0.594279 0.36174,0.594279 0.36174,2.19625 0,1.60197 -0.36174,2.196249 -0.36174,0.568442 -1.26607,0.568442 h -9.58599 v 7.183028 q 0,4.289146 3.33313,4.289146 1.18856,0 2.7647,-0.516764 1.60197,-0.542603 3.7207,-1.498618 0.56844,-0.232544 0.90434,-0.232544 0.5426,0 1.00769,0.465088 0.46509,0.43925 0.8785,1.47278 0.46509,1.16272 0.46509,1.886191 0,0.568441 -0.28422,0.956014 -0.25838,0.361735 -0.80099,0.645956 -5.32267,2.687176 -9.22425,2.687176 -4.49585,0 -6.87297,-2.506308 -2.35128,-2.506309 -2.35128,-7.31222 V 19.57124 h -4.98677 q -0.90434,0 -1.26608,-0.568442 -0.36173,-0.594279 -0.36173,-2.196249 0,-1.601971 0.36173,-2.19625 0.36174,-0.594279 1.26608,-0.594279 h 4.98677 V 6.7296384 q 0,-0.8784998 0.77515,-1.2402351 0.80099,-0.3875735 2.6355,-0.3875735 z"
         style="font-style:normal;font-variant:normal;font-weight:bold;font-stretch:normal;font-size:52.9167px;font-family:'Courier Prime';-inkscape-font-specification:'Courier Prime Bold';letter-spacing:-4.50321px;fill:#333333;stroke-width:0.264583"
         id="path36" />
    </g>
  </g>
</svg>
